<svg width="43" height="40" viewBox="0 0 43 40" fill="none" xmlns="http://www.w3.org/2000/svg">
<path fill-rule="evenodd" clip-rule="evenodd" d="M42 22.2V31.05C42 33.5 39.9449 35.5 37.4273 35.5H28.3333C25.8158 35.5 23.7607 33.5 23.7607 31.05V22.2C23.7607 12.4 31.9298 4.5 41.9486 4.5V10.75C37.2732 11.05 33.2657 13.85 31.3647 17.8H37.4273C39.9449 17.8 42 19.75 42 22.2ZM14.6667 35.5H5.57268C3.05514 35.5 1 33.5 1 31.05V22.2C1 12.4 9.16917 4.5 19.188 4.5V10.75C14.5125 11.05 10.505 13.85 8.60401 17.8H14.6667C17.1842 17.8 19.2393 19.8 19.2393 22.25V31.1C19.2393 33.5 17.1842 35.5 14.6667 35.5Z" stroke="#26FFBF" stroke-width="2"/>
</svg>
