<svg width="25" height="20" viewBox="0 0 25 20" fill="none" xmlns="http://www.w3.org/2000/svg">
<path fill-rule="evenodd" clip-rule="evenodd" d="M24.875 2.65355C23.9651 3.04041 22.9859 3.30095 21.9588 3.41858C23.0073 2.81697 23.8125 1.86482 24.1911 0.73028C23.2111 1.28768 22.123 1.69112 20.9672 1.90982C20.0408 0.965559 18.7201 0.375 17.2608 0.375C14.4568 0.375 12.1832 2.55091 12.1832 5.23447C12.1832 5.61502 12.2286 5.98609 12.3152 6.34217C8.09479 6.14005 4.35367 4.20494 1.84914 1.26478C1.41191 1.98246 1.16196 2.81698 1.16196 3.70756C1.16196 5.39318 2.05702 6.88063 3.42065 7.75225C2.58746 7.72699 1.80541 7.50829 1.11988 7.14432V7.20511C1.11988 9.56024 2.87124 11.5238 5.19264 11.9714C4.76696 12.082 4.31819 12.142 3.8554 12.142C3.5279 12.142 3.20947 12.1112 2.89929 12.0543C3.54522 13.9847 5.42115 15.39 7.64272 15.4295C5.90539 16.7322 3.71598 17.5099 1.33684 17.5099C0.92602 17.5099 0.521799 17.487 0.125 17.4412C2.37215 18.8197 5.04085 19.625 7.90835 19.625C17.2476 19.625 22.3548 12.2201 22.3548 5.79898C22.3548 5.58818 22.3507 5.37817 22.3399 5.17053C23.3332 4.48365 24.1944 3.62781 24.875 2.65355Z" fill="white"/>
</svg>
