<svg width="20" height="19" viewBox="0 0 20 19" fill="none" xmlns="http://www.w3.org/2000/svg">
<path fill-rule="evenodd" clip-rule="evenodd" d="M4.5529 2.51402C4.5529 3.60348 3.72337 4.48515 2.42613 4.48515C1.17943 4.48515 0.349907 3.60348 0.375579 2.51402C0.349907 1.37162 1.17941 0.515625 2.45098 0.515625C3.72335 0.515625 4.52803 1.37162 4.5529 2.51402ZM0.479876 18.7323V6.04231H4.42373V18.7315H0.479876V18.7323Z" fill="white"/>
<path fill-rule="evenodd" clip-rule="evenodd" d="M7.58477 10.0922C7.58477 8.50938 7.53262 7.16 7.48047 6.04407H10.9061L11.0882 7.78255H11.166C11.6851 6.97789 12.9823 5.75928 15.0842 5.75928C17.6787 5.75928 19.6249 7.47208 19.6249 11.2073V18.734H15.6811V11.7015C15.6811 10.0657 15.1107 8.95062 13.6835 8.95062C12.5932 8.95062 11.945 9.70313 11.6859 10.4292C11.5816 10.6891 11.5302 11.0517 11.5302 11.4159V18.734H7.58636V10.0922H7.58477Z" fill="white"/>
</svg>
