<svg viewBox="0 0 101 72" fill="none" xmlns="http://www.w3.org/2000/svg">
<path d="M57.5179 14.7217L52.8271 17.3918L50.3735 18.8351L46.0436 21.2887V25.2577L43.59 23.8144V19.8454L46.3323 18.2577L50.3014 15.9485L57.4457 11.8351L60.5488 13.6392V16.4536L57.5179 14.7217ZM49.1467 40.4845L46.6931 39.0412L43.2292 41.0619L31.8271 34.4949V21.2887L36.5179 18.6186L38.9715 17.1753L43.3014 14.7217L46.7653 16.7423L49.2189 15.299L43.3014 11.9072L38.9715 14.3608L35.0024 16.6701L29.3735 19.9175V35.9382L43.2292 43.9485L49.1467 40.4845ZM57.0849 35.9382V29.732V24.3918V23.8866V22.9485V19.9175L53.9818 18.1134L51.5282 19.5567L54.6313 21.3608V24.3918V25.3299V26.268V31.6083V34.4949L51.6003 36.299L54.0539 37.7423L57.0849 35.9382ZM38.9715 9.38145L50.3735 2.81443L61.7756 9.38145V13.4948V14.3608V17.1753V18.1134V22.5876L58.3117 24.6083V27.4227L64.2292 24.0309V19.4124V18.6907V15.8763V14.866V8.08248L50.3735 0L36.5179 8.01031V14.3608L38.9715 12.9175V9.38145ZM36.5179 20.0619V24.0309L43.6622 28.1443L46.1158 29.5876L50.4457 32.0412L53.5488 30.2371V27.4227L50.3735 29.1546L47.3426 27.4227L43.3735 25.1134L38.9715 22.5876V18.6186L36.5179 20.0619ZM65.456 19.3402L68.9199 21.3608V34.567L57.5179 41.134L52.8271 38.4639L50.3735 37.0206L46.0436 34.567V31.0309L43.59 29.5876V35.9382L47.9199 38.3918L50.3735 39.8351L57.5179 43.9485L71.3735 35.9382V19.9175L65.456 16.5258V19.3402Z" fill="#30BF83"/>
<path d="M0 70.5325C0 70.7725 0.192 70.9885 0.456 70.9885H10.224C10.488 70.9885 10.68 70.7725 10.68 70.5325V68.5645C10.68 68.3245 10.488 68.1085 10.224 68.1085H3.12V63.9085H9.048C9.288 63.9085 9.504 63.7165 9.504 63.4525V61.4605C9.504 61.2205 9.288 61.0045 9.048 61.0045H3.12V57.0685H10.224C10.488 57.0685 10.68 56.8525 10.68 56.6125V54.6445C10.68 54.4045 10.488 54.1885 10.224 54.1885H0.456C0.192 54.1885 0 54.4045 0 54.6445V70.5325Z" fill="white"/>
<path d="M14.3494 70.5325C14.3494 70.7725 14.5414 70.9885 14.8054 70.9885H23.5894C23.8534 70.9885 24.0454 70.7725 24.0454 70.5325V68.5645C24.0454 68.3245 23.8534 68.1085 23.5894 68.1085H17.4694V54.6445C17.4694 54.4045 17.2534 54.1885 17.0134 54.1885H14.8054C14.5414 54.1885 14.3494 54.4045 14.3494 54.6445V70.5325Z" fill="white"/>
<path d="M29.7546 70.8925C29.8026 71.0845 29.9946 71.2285 30.1866 71.2285H30.5706C30.8106 71.2285 30.9066 71.1085 30.9786 70.9645L35.2266 60.0925H35.3466L39.6426 70.9645C39.6906 71.1085 39.8346 71.2285 40.0506 71.2285H40.4346C40.6266 71.2285 40.8186 71.0845 40.8666 70.8925L45.4026 54.7645C45.4986 54.4285 45.3066 54.1885 44.9706 54.1885H42.7626C42.5706 54.1885 42.3786 54.3565 42.3306 54.5245L39.8826 64.1005H39.7866L35.9466 54.2125C35.8986 54.0685 35.7786 53.9485 35.5386 53.9485H35.1066C34.8666 53.9485 34.7466 54.0685 34.6986 54.2125L30.8826 64.1005H30.7866L28.2906 54.5245C28.2426 54.3565 28.0506 54.1885 27.8586 54.1885H25.6506C25.3146 54.1885 25.1226 54.4285 25.2186 54.7645L29.7546 70.8925Z" fill="white"/>
<path d="M46.8525 62.6125C46.8525 67.4125 50.6685 71.2285 55.4685 71.2285C60.2685 71.2285 64.1085 67.4125 64.1085 62.6125C64.1085 57.8125 60.2685 53.9485 55.4685 53.9485C50.6685 53.9485 46.8525 57.8125 46.8525 62.6125ZM49.9725 62.6125C49.9725 59.5885 52.4445 57.0685 55.4685 57.0685C58.4925 57.0685 60.9885 59.5885 60.9885 62.6125C60.9885 65.6365 58.4925 68.1085 55.4685 68.1085C52.4445 68.1085 49.9725 65.6365 49.9725 62.6125Z" fill="white"/>
<path d="M66.2878 62.6125C66.2878 67.4125 70.1038 71.2285 74.9038 71.2285C79.7038 71.2285 83.5438 67.4125 83.5438 62.6125C83.5438 57.8125 79.7038 53.9485 74.9038 53.9485C70.1038 53.9485 66.2878 57.8125 66.2878 62.6125ZM69.4078 62.6125C69.4078 59.5885 71.8798 57.0685 74.9038 57.0685C77.9278 57.0685 80.4238 59.5885 80.4238 62.6125C80.4238 65.6365 77.9278 68.1085 74.9038 68.1085C71.8798 68.1085 69.4078 65.6365 69.4078 62.6125Z" fill="white"/>
<path d="M86.2031 70.5325C86.2031 70.7725 86.3951 70.9885 86.6351 70.9885H92.3231C96.9551 70.9885 100.747 67.2205 100.747 62.5645C100.747 57.9565 96.9551 54.1885 92.3231 54.1885H86.6351C86.3951 54.1885 86.2031 54.4045 86.2031 54.6445V70.5325ZM89.2991 68.0605V57.0925H92.0351C95.1551 57.0925 97.4351 59.4445 97.4351 62.5645C97.4351 65.7085 95.1551 68.0605 92.0351 68.0605H89.2991Z" fill="white"/>
</svg>
