<svg width="102" height="90" viewBox="0 0 102 90" fill="none" xmlns="http://www.w3.org/2000/svg">
<path d="M61.414 19.4157C60.8154 19.0737 60.0807 19.0731 59.4816 19.4141L54.4377 22.2852L51.2937 24.1346L46.8516 26.6518C46.168 27.0392 45.7455 27.7642 45.7455 28.5499V29.616C45.7455 30.8318 44.4245 31.5873 43.3765 30.9709C42.8964 30.6885 42.6016 30.173 42.6016 29.616V26.9834C42.6016 26.0215 43.1142 25.1324 43.9466 24.6505L46.1154 23.3949L51.2013 20.4358L59.0041 15.9433C59.8403 15.4618 60.87 15.464 61.7041 15.949L63.5516 17.0231C64.0347 17.304 64.332 17.8206 64.332 18.3795C64.332 19.5842 63.0305 20.3394 61.9846 19.7417L61.414 19.4157ZM47.3791 53.2469C48.4287 52.6325 48.4303 51.1159 47.382 50.4993C46.8853 50.2071 46.2696 50.206 45.7718 50.4963L43.4889 51.828C42.6542 52.315 41.6226 52.3178 40.7852 51.8355L28.8793 44.9783C28.0439 44.4971 27.529 43.6064 27.529 42.6423V28.846C27.529 27.877 28.049 26.9826 28.8911 26.5032L33.5395 23.8572L36.6835 22.0078L40.8832 19.628C41.7181 19.1549 42.7416 19.1613 43.5705 19.6448L45.8706 20.9865C46.3644 21.2746 46.9754 21.2735 47.4682 20.9836C48.5139 20.3685 48.5054 18.8534 47.4528 18.2501L43.5646 16.0215C42.7384 15.5479 41.7236 15.5455 40.895 16.015L36.6835 18.4015L31.5977 21.3605L25.7336 24.7436C24.8991 25.2251 24.385 26.1152 24.385 27.0786V44.4946C24.385 45.4572 24.8982 46.3467 25.7315 46.8284L40.7816 55.5292C41.6208 56.0144 42.656 56.0116 43.4926 55.5219L47.3791 53.2469ZM58.5765 46.8339C59.3931 46.3478 59.8934 45.4677 59.8934 44.5174V38.0976V31.2548V30.6075V29.4054V27.0726C59.8934 26.1124 59.3827 25.2247 58.5526 24.7421L56.7208 23.6772C56.2244 23.3885 55.6109 23.3901 55.116 23.6812C54.0681 24.2977 54.072 25.8144 55.123 26.4255L55.7484 26.7891C56.3682 27.1494 56.7495 27.8121 56.7495 28.529V31.2548V32.4569V33.659V40.5018V43.0629C56.7495 43.7683 56.378 44.4217 55.7718 44.7825L55.1872 45.1305C54.1428 45.7522 54.1467 47.2659 55.1943 47.8821C55.6972 48.1779 56.3212 48.1763 56.8226 47.8779L58.5765 46.8339ZM36.6835 13.5794C36.6835 12.6152 37.1984 11.7245 38.0338 11.2434L49.9483 4.38121C50.7811 3.90155 51.8063 3.90155 52.6391 4.38121L64.5536 11.2434C65.3891 11.7245 65.904 12.6152 65.904 13.5794V17.2919V18.4015V22.0078V23.2099V27.3947C65.904 28.3535 65.3947 29.2401 64.5665 29.7232L62.2433 31.0785C61.7616 31.3594 61.4654 31.8751 61.4654 32.4328C61.4654 33.6375 62.7677 34.3921 63.8129 33.793L67.6927 31.5692C68.5309 31.0888 69.048 30.1965 69.048 29.2304V24.8744V23.9497V20.3434V19.0488V11.905C69.048 10.9462 68.5387 10.0596 67.7105 9.57646L52.646 0.788799C51.8099 0.301071 50.7764 0.29906 49.9384 0.783528L34.886 9.4857C34.0527 9.96745 33.5395 10.857 33.5395 11.8195V15.653C33.5395 16.8688 34.8606 17.6244 35.9085 17.008C36.3887 16.7255 36.6835 16.2101 36.6835 15.653V13.5794ZM34.3145 25.2508C33.8343 25.5332 33.5395 26.0487 33.5395 26.6057V29.2339C33.5395 30.1982 34.0545 31.089 34.8902 31.5701L42.694 36.0632L45.838 37.9126L50.04 40.2937C50.8737 40.7662 51.8955 40.7605 52.7239 40.2789L54.5687 39.2063C55.0601 38.9206 55.3624 38.3951 55.3624 37.8267C55.3624 36.6154 54.0659 35.8458 53.0024 36.4258L52.3066 36.8053C51.6771 37.1487 50.9146 37.1412 50.292 36.7854L47.41 35.1385L42.3242 32.1795L37.7811 29.5728C37.1022 29.1833 36.6835 28.4603 36.6835 27.6776V26.6057C36.6835 25.3899 35.3624 24.6343 34.3145 25.2508ZM70.6199 23.8814C70.6199 24.439 70.9161 24.9547 71.3978 25.2357L73.7211 26.5909C74.5492 27.074 75.0585 27.9606 75.0585 28.9194V42.7348C75.0585 43.6989 74.5436 44.5896 73.7082 45.0708L61.7858 51.9375C60.9572 52.4147 59.9378 52.4173 59.1068 51.9442L54.4377 49.2864L51.2937 47.437L47.1123 45.0675C46.2676 44.5889 45.7455 43.693 45.7455 42.7222V40.6611C45.7455 40.1041 45.4507 39.5886 44.9706 39.3062C43.9226 38.6897 42.6016 39.4453 42.6016 40.6611V44.4791C42.6016 45.45 43.1236 46.3458 43.9683 46.8245L48.1498 49.194L51.2937 51.0434L59.1004 55.5381C59.9345 56.0184 60.9614 56.0175 61.7947 55.5357L76.8559 46.8284C77.6892 46.3467 78.2025 45.4572 78.2025 44.4946V27.0837C78.2025 26.1176 77.6855 25.2253 76.8473 24.7449L72.9675 22.5211C71.9222 21.922 70.6199 22.6766 70.6199 23.8814Z" fill="#00FFB4"/>
<path d="M16.3736 79.907C16.4814 80.554 16.5138 81.4059 16.4707 82.4626C16.4491 82.7214 16.3089 82.8508 16.0501 82.8508H6.18374C6.14061 82.8508 6.09748 82.8723 6.05435 82.9155C6.01121 82.937 6.00043 82.9694 6.022 83.0125C6.06513 83.2497 6.17296 83.5625 6.34549 83.9506C6.60428 84.4035 6.99246 84.7701 7.51004 85.0505C8.02762 85.3309 8.66382 85.471 9.41862 85.471C10.7773 85.471 11.8448 85.0289 12.6211 84.1447C12.7074 84.0369 12.8045 83.983 12.9123 83.983C13.0201 83.983 13.1064 84.0261 13.1711 84.1124L15.6619 86.9591C15.7482 87.0238 15.7913 87.11 15.7913 87.2179C15.7913 87.3041 15.7482 87.3904 15.6619 87.4767C14.9071 88.2962 13.969 88.9216 12.8476 89.3529C11.7477 89.7842 10.54 89.9999 9.22453 89.9999C7.26203 89.9999 5.59068 89.5793 4.21047 88.7383C2.85182 87.8756 1.87057 86.6787 1.26673 85.1475C0.813844 84.0692 0.587402 82.7214 0.587402 81.1039C0.587402 79.9825 0.759929 78.9042 1.10498 77.8691C1.6657 76.2732 2.58224 75.0224 3.85463 74.1166C5.14858 73.1893 6.67976 72.7256 8.44816 72.7256C9.8715 72.7256 11.1439 73.0383 12.2653 73.6637C13.3867 74.2676 14.2925 75.1194 14.9826 76.2193C15.6943 77.2976 16.1579 78.5268 16.3736 79.907ZM8.44816 77.3515C7.32673 77.3515 6.58271 77.8799 6.21609 78.9366C6.12983 79.1738 6.07591 79.4002 6.05435 79.6159C6.01121 79.7237 6.05435 79.7776 6.18374 79.7776H10.7773C10.8635 79.7776 10.9067 79.7345 10.9067 79.6483C10.9067 79.4757 10.8635 79.2601 10.7773 79.0013C10.6263 78.4621 10.346 78.0524 9.9362 77.772C9.54801 77.4917 9.052 77.3515 8.44816 77.3515Z" fill="#00FFB4"/>
<path d="M18.7827 89.7411C18.6748 89.7411 18.5778 89.7087 18.4915 89.644C18.4268 89.5578 18.3945 89.4607 18.3945 89.3529V67.4851C18.3945 67.3773 18.4268 67.291 18.4915 67.2263C18.5778 67.1401 18.6748 67.0969 18.7827 67.0969H23.3762C23.484 67.0969 23.5703 67.1401 23.635 67.2263C23.7212 67.291 23.7644 67.3773 23.7644 67.4851V89.3529C23.7644 89.4607 23.7212 89.5578 23.635 89.644C23.5703 89.7087 23.484 89.7411 23.3762 89.7411H18.7827Z" fill="#00FFB4"/>
<path d="M30.5476 89.7411C30.3319 89.7411 30.1918 89.6332 30.1271 89.4176L25.4365 73.4373L25.4041 73.3079C25.4041 73.0922 25.5227 72.9844 25.76 72.9844H30.5152C30.7525 72.9844 30.8926 73.103 30.9358 73.3402L32.8767 82.1068C32.8983 82.193 32.9306 82.2362 32.9738 82.2362C33.0169 82.2362 33.0492 82.193 33.0708 82.1068L35.1735 73.3079C35.2382 73.0922 35.3783 72.9844 35.594 72.9844H39.7346C39.9719 72.9844 40.1228 73.0922 40.1875 73.3079L42.3872 82.1391C42.4088 82.2038 42.4412 82.2362 42.4843 82.2362C42.5274 82.2362 42.5598 82.2038 42.5813 82.1391L44.7487 73.3079C44.8134 73.0922 44.9644 72.9844 45.2016 72.9844L49.9245 73.0491C50.0539 73.0491 50.1402 73.0922 50.1833 73.1785C50.248 73.2432 50.2696 73.3402 50.248 73.4696L45.4927 89.4176C45.428 89.6332 45.2879 89.7411 45.0722 89.7411H40.3169C40.0797 89.7411 39.9287 89.6332 39.864 89.4176L37.729 81.8803C37.7075 81.8156 37.6751 81.7833 37.632 81.7833C37.5888 81.7833 37.5565 81.8156 37.5349 81.8803L35.7234 89.4176C35.6587 89.6332 35.5185 89.7411 35.3029 89.7411H30.5476Z" fill="#00FFB4"/>
<path d="M58.4078 89.9999C56.4669 89.9999 54.8171 89.4823 53.4584 88.4471C52.0998 87.412 51.194 86.0102 50.7411 84.2418C50.4824 83.3576 50.353 82.3871 50.353 81.3304C50.353 80.1443 50.4931 79.0983 50.7735 78.1926C51.2695 76.4889 52.1861 75.1626 53.5231 74.2137C54.8818 73.2432 56.5208 72.758 58.4402 72.758C60.338 72.758 61.9446 73.2432 63.2601 74.2137C64.5756 75.1626 65.4922 76.4781 66.0098 78.1602C66.3117 79.1307 66.4627 80.1658 66.4627 81.2657C66.4627 82.2577 66.344 83.2066 66.1068 84.1124C65.6539 85.9239 64.7482 87.358 63.3895 88.4148C62.0309 89.4715 60.3703 89.9999 58.4078 89.9999ZM58.4078 85.4063C59.0332 85.4063 59.5508 85.2122 59.9606 84.8241C60.3703 84.4143 60.6722 83.8644 60.8663 83.1743C60.9957 82.6136 61.0604 81.9989 61.0604 81.3304C61.0604 80.6834 60.9849 80.058 60.834 79.4542C60.6614 78.7856 60.3703 78.268 59.9606 77.9014C59.5508 77.5348 59.0332 77.3515 58.4078 77.3515C57.157 77.3515 56.3375 78.0524 55.9493 79.4542C55.8199 79.9717 55.7552 80.5971 55.7552 81.3304C55.7552 81.9989 55.8199 82.6136 55.9493 83.1743C56.1218 83.8644 56.413 84.4143 56.8227 84.8241C57.254 85.2122 57.7824 85.4063 58.4078 85.4063Z" fill="#00FFB4"/>
<path d="M76.1765 89.9999C74.2355 89.9999 72.5858 89.4823 71.2271 88.4471C69.8685 87.412 68.9627 86.0102 68.5098 84.2418C68.251 83.3576 68.1216 82.3871 68.1216 81.3304C68.1216 80.1443 68.2618 79.0983 68.5422 78.1926C69.0382 76.4889 69.9547 75.1626 71.2918 74.2137C72.6505 73.2432 74.2895 72.758 76.2088 72.758C78.1066 72.758 79.7133 73.2432 81.0288 74.2137C82.3443 75.1626 83.2608 76.4781 83.7784 78.1602C84.0804 79.1307 84.2313 80.1658 84.2313 81.2657C84.2313 82.2577 84.1127 83.2066 83.8755 84.1124C83.4226 85.9239 82.5168 87.358 81.1582 88.4148C79.7995 89.4715 78.139 89.9999 76.1765 89.9999ZM76.1765 85.4063C76.8019 85.4063 77.3195 85.2122 77.7292 84.8241C78.139 84.4143 78.4409 83.8644 78.635 83.1743C78.7644 82.6136 78.8291 81.9989 78.8291 81.3304C78.8291 80.6834 78.7536 80.058 78.6026 79.4542C78.4301 78.7856 78.139 78.268 77.7292 77.9014C77.3195 77.5348 76.8019 77.3515 76.1765 77.3515C74.9257 77.3515 74.1061 78.0524 73.718 79.4542C73.5886 79.9717 73.5239 80.5971 73.5239 81.3304C73.5239 81.9989 73.5886 82.6136 73.718 83.1743C73.8905 83.8644 74.1816 84.4143 74.5914 84.8241C75.0227 85.2122 75.5511 85.4063 76.1765 85.4063Z" fill="#00FFB4"/>
<path d="M96.6301 67.4851C96.6301 67.3773 96.6624 67.291 96.7271 67.2263C96.8134 67.1401 96.9104 67.0969 97.0183 67.0969H101.612C101.72 67.0969 101.806 67.1401 101.871 67.2263C101.957 67.291 102 67.3773 102 67.4851V89.3529C102 89.4607 101.957 89.5578 101.871 89.644C101.806 89.7087 101.72 89.7411 101.612 89.7411H97.0183C96.9104 89.7411 96.8134 89.7087 96.7271 89.644C96.6624 89.5578 96.6301 89.4607 96.6301 89.3529V88.2854C96.6301 88.2207 96.6085 88.1883 96.5654 88.1883C96.5222 88.1668 96.4791 88.1775 96.436 88.2207C95.5733 89.4068 94.3333 89.9999 92.7159 89.9999C91.2494 89.9999 89.9447 89.5578 88.8017 88.6736C87.6802 87.7894 86.8823 86.5817 86.4079 85.0505C86.0628 83.8859 85.8903 82.6351 85.8903 81.298C85.8903 79.7884 86.1167 78.4298 86.5696 77.2221C87.0656 75.885 87.8528 74.8067 88.9311 73.9872C90.0309 73.1677 91.3572 72.758 92.91 72.758C94.4627 72.758 95.638 73.2648 96.436 74.2784C96.4791 74.3431 96.5222 74.3646 96.5654 74.3431C96.6085 74.3215 96.6301 74.2784 96.6301 74.2137V67.4851ZM96.0801 84.1447C96.4468 83.4546 96.6301 82.5381 96.6301 81.3951C96.6301 80.1443 96.4252 79.1738 96.0155 78.4837C95.5626 77.7289 94.9264 77.3515 94.1069 77.3515C93.2227 77.3515 92.5649 77.7397 92.1336 78.516C91.7023 79.2493 91.4866 80.209 91.4866 81.3951C91.4866 82.5381 91.6807 83.4654 92.0689 84.1771C92.5218 84.9966 93.2011 85.4063 94.1069 85.4063C94.9695 85.4063 95.6273 84.9858 96.0801 84.1447Z" fill="#00FFB4"/>
</svg>
