<svg viewBox="0 0 180 66" fill="none" xmlns="http://www.w3.org/2000/svg">
<path class="logo_hex" d="M42.8275 22.8899C42.1352 22.4943 41.2854 22.4936 40.5924 22.8881L34.7587 26.2088L31.1224 28.3478L25.9847 31.2591C25.1941 31.7072 24.7054 32.5457 24.7054 33.4545V34.6874C24.7054 36.0936 23.1775 36.9675 21.9655 36.2546C21.4101 35.9279 21.0691 35.3317 21.0691 34.6874V31.4763C21.0691 30.4667 21.6071 29.5336 22.4809 29.0278L25.1332 27.4922L31.0155 24.0698L40.1849 18.7904C41.0625 18.2851 42.1432 18.2874 43.0187 18.7964L45.2998 20.1226C45.8586 20.4475 46.2024 21.0451 46.2024 21.6914C46.2024 23.0848 44.6972 23.9583 43.4874 23.267L42.8275 22.8899ZM26.5948 62.0188C27.8088 61.3082 27.8106 59.5541 26.5982 58.8409C26.0237 58.503 25.3115 58.5017 24.7358 58.8375L21.951 60.462C21.0749 60.9731 19.9922 60.9761 19.1133 60.4699L5.05353 52.3722C4.17669 51.8672 3.6363 50.9323 3.6363 49.9204V33.6291C3.6363 32.6121 4.18212 31.6734 5.06596 31.1703L10.588 28.0269L14.2243 25.8879L19.226 23.0536C20.1023 22.5571 21.1765 22.5638 22.0465 23.0713L24.85 24.7067C25.4212 25.0399 26.1279 25.0386 26.6979 24.7033C27.9073 23.9919 27.8974 22.2396 26.6801 21.5418L22.0403 18.8824C21.1731 18.3854 20.1081 18.3828 19.2385 18.8755L14.2243 21.7169L8.3421 25.1393L1.41544 29.1354C0.539605 29.6407 0 30.575 0 31.5861V52.0625C0 53.0727 0.538643 54.0063 1.41323 54.5119L19.1095 64.7426C19.9903 65.2518 21.0768 65.2489 21.9549 64.7349L26.5948 62.0188ZM39.6866 54.5176C40.5437 54.0075 41.0688 53.0838 41.0688 52.0864V44.4972V36.5829V35.8343V34.4439V31.5798C41.0688 30.5721 40.5328 29.6404 39.6616 29.1339L37.3994 27.8187C36.8252 27.4849 36.1157 27.4867 35.5433 27.8234C34.3313 28.5363 34.3357 30.2906 35.5513 30.9973L36.2747 31.4179C36.9915 31.8346 37.4325 32.6012 37.4325 33.4303V36.5829V37.9733V39.3636V47.2779V50.2401C37.4325 51.056 37.0029 51.8116 36.3018 52.229L35.6256 52.6315C34.4176 53.3505 34.4222 55.1012 35.6339 55.8139C36.2155 56.1561 36.9372 56.1542 37.517 55.8091L39.6866 54.5176ZM14.2243 15.9728C14.2243 14.9609 14.7647 14.0261 15.6416 13.5211L29.7104 5.41817C30.5844 4.91475 31.6604 4.91475 32.5345 5.41817L46.6033 13.5211C47.4802 14.0261 48.0205 14.9609 48.0205 15.9728V20.4335V21.7169V25.8879V27.2783V32.2841C48.0205 33.2904 47.486 34.221 46.6168 34.728L43.7866 36.379C43.2295 36.7039 42.8869 37.3004 42.8869 37.9453C42.8869 39.3387 44.3932 40.2115 45.6021 39.5186L50.2345 36.8634C51.1142 36.3592 51.6568 35.4227 51.6568 34.4087V29.2034V28.1339V23.9628V22.4655V14.0373C51.6568 13.031 51.1224 12.1004 50.2531 11.5934L32.5417 1.26173C31.6641 0.749829 30.5795 0.747717 29.7 1.25619L12.0013 11.4883C11.1267 11.9939 10.588 12.9275 10.588 13.9377V18.538C10.588 19.9442 12.116 20.8181 13.328 20.1051C13.8834 19.7785 14.2243 19.1823 14.2243 18.538V15.9728ZM11.4844 29.6387C10.929 29.9654 10.588 30.5615 10.588 31.2058V34.4124C10.588 35.4244 11.1286 36.3594 12.0056 36.8644L21.1761 42.1443L24.8124 44.2833L29.8164 47.1189C30.6915 47.6148 31.7639 47.6088 32.6334 47.1033L34.9102 45.7796C35.4786 45.4492 35.8282 44.8414 35.8282 44.184C35.8282 42.783 34.3287 41.8928 33.0987 42.5637L32.2939 43.0026C31.5659 43.3998 30.6839 43.391 29.9638 42.9796L26.6305 41.0748L20.7483 37.6524L15.4938 34.6376C14.7086 34.187 14.2243 33.3509 14.2243 32.4456V31.2058C14.2243 29.7996 12.6964 28.9257 11.4844 29.6387ZM53.475 28.0549C53.475 28.6998 53.8176 29.2963 54.3747 29.6212L57.2049 31.2722C58.0741 31.7792 58.6086 32.7098 58.6086 33.7161V50.0274C58.6086 51.0393 58.0682 51.9741 57.1914 52.4791L43.1143 60.5868C42.2447 61.0877 41.1748 61.0904 40.3026 60.5939L34.7587 57.4382L31.1224 55.2992L26.1399 52.4757C25.2534 51.9734 24.7054 51.0331 24.7054 50.0141V47.4622C24.7054 46.8179 24.3645 46.2217 23.8091 45.8951C22.5971 45.1821 21.0691 46.056 21.0691 47.4622V52.0462C21.0691 53.0652 21.6171 54.0054 22.5036 54.5078L27.4861 57.3312L31.1224 59.4702L40.2959 64.7519C41.1713 65.2559 42.2491 65.255 43.1237 64.7494L60.8317 54.5119C61.7062 54.0063 62.2449 53.0727 62.2449 52.0625V31.5915C62.2449 30.5775 61.7023 29.641 60.8225 29.1368L56.1901 26.4816C54.9812 25.7887 53.475 26.6615 53.475 28.0549Z" />
<path d="M90.1305 34.4261C90.2436 35.1051 90.2776 35.9992 90.2323 37.1083C90.2097 37.3799 90.0626 37.5157 89.791 37.5157H79.4357C79.3904 37.5157 79.3451 37.5383 79.2999 37.5836C79.2546 37.6062 79.2433 37.6402 79.2659 37.6855C79.3112 37.9344 79.4243 38.2626 79.6054 38.6701C79.877 39.1454 80.2845 39.5302 80.8277 39.8244C81.3709 40.1187 82.0386 40.2658 82.8308 40.2658C84.2568 40.2658 85.3772 39.8018 86.1921 38.8738C86.2826 38.7606 86.3845 38.704 86.4976 38.704C86.6108 38.704 86.7013 38.7493 86.7692 38.8398L89.3835 41.8276C89.4741 41.8955 89.5193 41.986 89.5193 42.0992C89.5193 42.1897 89.4741 42.2803 89.3835 42.3708C88.5913 43.2309 87.6067 43.8873 86.4297 44.34C85.2754 44.7927 84.0078 45.019 82.6271 45.019C80.5674 45.019 78.8132 44.5777 77.3646 43.6949C75.9386 42.7895 74.9088 41.5333 74.275 39.9263C73.7997 38.7946 73.562 37.3799 73.562 35.6823C73.562 34.5053 73.7431 33.3736 74.1052 32.2871C74.6937 30.6122 75.6557 29.2994 76.9911 28.3487C78.3492 27.3754 79.9563 26.8888 81.8123 26.8888C83.3062 26.8888 84.6416 27.217 85.8186 27.8734C86.9956 28.5072 87.9462 29.4012 88.6705 30.5556C89.4175 31.6873 89.9041 32.9775 90.1305 34.4261ZM81.8123 31.7439C80.6353 31.7439 79.8544 32.2985 79.4696 33.4075C79.3791 33.6565 79.3225 33.8942 79.2999 34.1205C79.2546 34.2337 79.2999 34.2903 79.4357 34.2903H84.2568C84.3474 34.2903 84.3926 34.245 84.3926 34.1545C84.3926 33.9734 84.3474 33.7471 84.2568 33.4754C84.0984 32.9096 83.8041 32.4795 83.3741 32.1853C82.9666 31.891 82.4461 31.7439 81.8123 31.7439Z" />
<path d="M92.6589 44.7474C92.5457 44.7474 92.4439 44.7135 92.3533 44.6456C92.2854 44.555 92.2515 44.4532 92.2515 44.34V21.3886C92.2515 21.2755 92.2854 21.1849 92.3533 21.117C92.4439 21.0265 92.5457 20.9812 92.6589 20.9812H97.48C97.5932 20.9812 97.6838 21.0265 97.7517 21.117C97.8422 21.1849 97.8875 21.2755 97.8875 21.3886V44.34C97.8875 44.4532 97.8422 44.555 97.7517 44.6456C97.6838 44.7135 97.5932 44.7474 97.48 44.7474H92.6589Z" />
<path d="M105.007 44.7474C104.78 44.7474 104.633 44.6343 104.565 44.4079L99.6424 27.6357L99.6085 27.4999C99.6085 27.2736 99.733 27.1604 99.982 27.1604H104.973C105.222 27.1604 105.369 27.2849 105.414 27.5339L107.451 36.7348C107.474 36.8254 107.508 36.8706 107.553 36.8706C107.598 36.8706 107.632 36.8254 107.655 36.7348L109.862 27.4999C109.93 27.2736 110.077 27.1604 110.303 27.1604H114.649C114.898 27.1604 115.057 27.2736 115.124 27.4999L117.433 36.7688C117.456 36.8367 117.49 36.8706 117.535 36.8706C117.58 36.8706 117.614 36.8367 117.637 36.7688L119.912 27.4999C119.98 27.2736 120.138 27.1604 120.387 27.1604L125.344 27.2283C125.48 27.2283 125.57 27.2736 125.616 27.3641C125.683 27.432 125.706 27.5339 125.683 27.6697L120.693 44.4079C120.625 44.6343 120.478 44.7474 120.251 44.7474H115.26C115.011 44.7474 114.853 44.6343 114.785 44.4079L112.544 36.4972C112.521 36.4292 112.488 36.3953 112.442 36.3953C112.397 36.3953 112.363 36.4292 112.34 36.4972L110.439 44.4079C110.371 44.6343 110.224 44.7474 109.998 44.7474H105.007Z" />
<path d="M134.248 45.019C132.21 45.019 130.479 44.4758 129.053 43.3894C127.627 42.3029 126.676 40.8317 126.201 38.9756C125.929 38.0476 125.794 37.0291 125.794 35.92C125.794 34.6751 125.941 33.5773 126.235 32.6267C126.756 30.8385 127.718 29.4465 129.121 28.4506C130.547 27.432 132.267 26.9228 134.282 26.9228C136.273 26.9228 137.96 27.432 139.34 28.4506C140.721 29.4465 141.683 30.8272 142.226 32.5927C142.543 33.6113 142.702 34.6977 142.702 35.8521C142.702 36.8933 142.577 37.8892 142.328 38.8398C141.853 40.7411 140.902 42.2463 139.476 43.3554C138.05 44.4645 136.307 45.019 134.248 45.019ZM134.248 40.1979C134.904 40.1979 135.447 39.9942 135.877 39.5868C136.307 39.1567 136.624 38.5795 136.828 37.8552C136.964 37.2667 137.032 36.6216 137.032 35.92C137.032 35.2409 136.952 34.5845 136.794 33.9508C136.613 33.2491 136.307 32.7059 135.877 32.3211C135.447 31.9363 134.904 31.7439 134.248 31.7439C132.935 31.7439 132.075 32.4795 131.667 33.9508C131.531 34.494 131.464 35.1504 131.464 35.92C131.464 36.6216 131.531 37.2667 131.667 37.8552C131.848 38.5795 132.154 39.1567 132.584 39.5868C133.037 39.9942 133.591 40.1979 134.248 40.1979Z" />
<path d="M152.897 45.019C150.86 45.019 149.128 44.4758 147.702 43.3894C146.276 42.3029 145.326 40.8317 144.85 38.9756C144.579 38.0476 144.443 37.0291 144.443 35.92C144.443 34.6751 144.59 33.5773 144.884 32.6267C145.405 30.8385 146.367 29.4465 147.77 28.4506C149.196 27.432 150.916 26.9228 152.931 26.9228C154.923 26.9228 156.609 27.432 157.99 28.4506C159.37 29.4465 160.332 30.8272 160.875 32.5927C161.192 33.6113 161.351 34.6977 161.351 35.8521C161.351 36.8933 161.226 37.8892 160.977 38.8398C160.502 40.7411 159.551 42.2463 158.125 43.3554C156.699 44.4645 154.956 45.019 152.897 45.019ZM152.897 40.1979C153.553 40.1979 154.096 39.9942 154.526 39.5868C154.956 39.1567 155.273 38.5795 155.477 37.8552C155.613 37.2667 155.681 36.6216 155.681 35.92C155.681 35.2409 155.602 34.5845 155.443 33.9508C155.262 33.2491 154.956 32.7059 154.526 32.3211C154.096 31.9363 153.553 31.7439 152.897 31.7439C151.584 31.7439 150.724 32.4795 150.316 33.9508C150.181 34.494 150.113 35.1504 150.113 35.92C150.113 36.6216 150.181 37.2667 150.316 37.8552C150.497 38.5795 150.803 39.1567 151.233 39.5868C151.686 39.9942 152.24 40.1979 152.897 40.1979Z" />
<path d="M174.364 21.3886C174.364 21.2755 174.398 21.1849 174.466 21.117C174.556 21.0265 174.658 20.9812 174.771 20.9812H179.592C179.706 20.9812 179.796 21.0265 179.864 21.117C179.955 21.1849 180 21.2755 180 21.3886V44.34C180 44.4532 179.955 44.555 179.864 44.6456C179.796 44.7135 179.706 44.7474 179.592 44.7474H174.771C174.658 44.7474 174.556 44.7135 174.466 44.6456C174.398 44.555 174.364 44.4532 174.364 44.34V43.2196C174.364 43.1517 174.341 43.1177 174.296 43.1177C174.251 43.0951 174.205 43.1064 174.16 43.1517C173.255 44.3966 171.953 45.019 170.256 45.019C168.717 45.019 167.347 44.555 166.148 43.627C164.971 42.699 164.133 41.4315 163.635 39.8244C163.273 38.6022 163.092 37.2894 163.092 35.886C163.092 34.3016 163.33 32.8756 163.805 31.6081C164.325 30.2048 165.152 29.073 166.283 28.2129C167.438 27.3528 168.83 26.9228 170.459 26.9228C172.089 26.9228 173.323 27.4547 174.16 28.5185C174.205 28.5864 174.251 28.609 174.296 28.5864C174.341 28.5638 174.364 28.5185 174.364 28.4506V21.3886ZM173.787 38.8738C174.171 38.1495 174.364 37.1875 174.364 35.9879C174.364 34.6751 174.149 33.6565 173.719 32.9322C173.243 32.14 172.576 31.7439 171.716 31.7439C170.788 31.7439 170.097 32.1513 169.645 32.9662C169.192 33.7357 168.966 34.743 168.966 35.9879C168.966 37.1875 169.169 38.1608 169.577 38.9077C170.052 39.7678 170.765 40.1979 171.716 40.1979C172.621 40.1979 173.311 39.7565 173.787 38.8738Z" />
</svg>
