<svg viewBox="0 0 155 44" fill="none" xmlns="http://www.w3.org/2000/svg">
<path class="logo-hex" d="M28.1443 14.7475L23.4536 17.4176L21 18.8609L16.6701 21.3145V25.2836L14.2165 23.8403V19.8712L16.9588 18.2836L20.9278 15.9743L28.0722 11.8609L31.1753 13.6651V16.4795L28.1443 14.7475ZM19.7732 40.5104L17.3196 39.0671L13.8557 41.0877L2.45361 34.5207V21.3145L7.14433 18.6444L9.59794 17.2011L13.9278 14.7475L17.3918 16.7682L19.8454 15.3249L13.9278 11.9331L9.59794 14.3867L5.62887 16.696L0 19.9434V35.964L13.8557 43.9743L19.7732 40.5104ZM27.7113 35.964V29.7578V24.4176V23.9125V22.9743V19.9434L24.6082 18.1393L22.1546 19.5826L25.2577 21.3867V24.4176V25.3558V26.2939V31.6341V34.5207L22.2268 36.3249L24.6804 37.7682L27.7113 35.964ZM9.59794 9.40732L21 2.84031L32.4021 9.40732V13.5207V14.3867V17.2011V18.1393V22.6135L28.9381 24.6341V27.4486L34.8557 24.0568V19.4383V18.7166V15.9022V14.8919V8.10835L21 0.0258789L7.14433 8.03619V14.3867L9.59794 12.9434V9.40732ZM7.14433 20.0877V24.0568L14.2887 28.1702L16.7423 29.6135L21.0722 32.0671L24.1753 30.263V27.4486L21 29.1805L17.9691 27.4486L14 25.1393L9.59794 22.6135V18.6444L7.14433 20.0877ZM36.0825 19.3661L39.5464 21.3867V34.5929L28.1443 41.1599L23.4536 38.4898L21 37.0465L16.6701 34.5929V31.0568L14.2165 29.6135V35.964L18.5464 38.4176L21 39.8609L28.1443 43.9743L42 35.964V19.9434L36.0825 16.5517V19.3661Z"/>
<path d="M54 29.9441C54 30.1841 54.192 30.4001 54.456 30.4001H64.224C64.488 30.4001 64.68 30.1841 64.68 29.9441V27.9761C64.68 27.7361 64.488 27.5201 64.224 27.5201H57.12V23.3201H63.048C63.288 23.3201 63.504 23.1281 63.504 22.8641V20.8721C63.504 20.6321 63.288 20.4161 63.048 20.4161H57.12V16.4801H64.224C64.488 16.4801 64.68 16.2641 64.68 16.0241V14.0561C64.68 13.8161 64.488 13.6001 64.224 13.6001H54.456C54.192 13.6001 54 13.8161 54 14.0561V29.9441Z" />
<path d="M68.3494 29.9441C68.3494 30.1841 68.5414 30.4001 68.8054 30.4001H77.5894C77.8534 30.4001 78.0454 30.1841 78.0454 29.9441V27.9761C78.0454 27.7361 77.8534 27.5201 77.5894 27.5201H71.4694V14.0561C71.4694 13.8161 71.2534 13.6001 71.0134 13.6001H68.8054C68.5414 13.6001 68.3494 13.8161 68.3494 14.0561V29.9441Z" />
<path d="M83.7546 30.3041C83.8026 30.4961 83.9946 30.6401 84.1866 30.6401H84.5706C84.8106 30.6401 84.9066 30.5201 84.9786 30.3761L89.2266 19.5041H89.3466L93.6426 30.3761C93.6906 30.5201 93.8346 30.6401 94.0506 30.6401H94.4346C94.6266 30.6401 94.8186 30.4961 94.8666 30.3041L99.4026 14.1761C99.4986 13.8401 99.3066 13.6001 98.9706 13.6001H96.7626C96.5706 13.6001 96.3786 13.7681 96.3306 13.9361L93.8826 23.5121H93.7866L89.9466 13.6241C89.8986 13.4801 89.7786 13.3601 89.5386 13.3601H89.1066C88.8666 13.3601 88.7466 13.4801 88.6986 13.6241L84.8826 23.5121H84.7866L82.2906 13.9361C82.2426 13.7681 82.0506 13.6001 81.8586 13.6001H79.6506C79.3146 13.6001 79.1226 13.8401 79.2186 14.1761L83.7546 30.3041Z" />
<path d="M100.853 22.0241C100.853 26.8241 104.668 30.6401 109.468 30.6401C114.268 30.6401 118.109 26.8241 118.109 22.0241C118.109 17.2241 114.268 13.3601 109.468 13.3601C104.668 13.3601 100.853 17.2241 100.853 22.0241ZM103.973 22.0241C103.973 19.0001 106.444 16.4801 109.468 16.4801C112.492 16.4801 114.989 19.0001 114.989 22.0241C114.989 25.0481 112.492 27.5201 109.468 27.5201C106.444 27.5201 103.973 25.0481 103.973 22.0241Z" />
<path d="M120.288 22.0241C120.288 26.8241 124.104 30.6401 128.904 30.6401C133.704 30.6401 137.544 26.8241 137.544 22.0241C137.544 17.2241 133.704 13.3601 128.904 13.3601C124.104 13.3601 120.288 17.2241 120.288 22.0241ZM123.408 22.0241C123.408 19.0001 125.88 16.4801 128.904 16.4801C131.928 16.4801 134.424 19.0001 134.424 22.0241C134.424 25.0481 131.928 27.5201 128.904 27.5201C125.88 27.5201 123.408 25.0481 123.408 22.0241Z" />
<path d="M140.203 29.9441C140.203 30.1841 140.395 30.4001 140.635 30.4001H146.323C150.955 30.4001 154.747 26.6321 154.747 21.9761C154.747 17.3681 150.955 13.6001 146.323 13.6001H140.635C140.395 13.6001 140.203 13.8161 140.203 14.0561V29.9441ZM143.299 27.4721V16.5041H146.035C149.155 16.5041 151.435 18.8561 151.435 21.9761C151.435 25.1201 149.155 27.4721 146.035 27.4721H143.299Z" />
</svg>
