<?xml version="1.0" standalone="no"?>
<!DOCTYPE svg PUBLIC "-//W3C//DTD SVG 20010904//EN"
 "http://www.w3.org/TR/2001/REC-SVG-20010904/DTD/svg10.dtd">
<svg version="1.0" xmlns="http://www.w3.org/2000/svg"
 width="531.000000pt" height="531.000000pt" viewBox="0 0 531.000000 531.000000"
 preserveAspectRatio="xMidYMid meet">
<metadata>
Created by potrace 1.14, written by Peter Selinger 2001-2017
</metadata>
<g transform="translate(0.000000,531.000000) scale(0.100000,-0.100000)"
fill="#000000" stroke="none">
<path d="M2552 5250 c-46 -28 -85 -50 -87 -50 -2 0 -49 -27 -105 -60 -56 -33
-103 -60 -106 -60 -2 0 -33 -18 -69 -40 -36 -22 -67 -40 -69 -40 -3 0 -49 -26
-103 -58 -54 -32 -105 -61 -113 -65 -8 -3 -222 -125 -475 -271 l-460 -264 -2
-381 c-1 -210 0 -381 2 -381 4 0 41 21 198 110 l97 55 0 215 0 215 141 80
c152 86 166 94 334 190 61 34 126 72 145 83 19 10 184 104 365 207 182 104
348 198 370 210 l39 21 61 -36 c33 -20 87 -52 120 -70 33 -18 170 -96 305
-173 135 -77 270 -154 301 -171 30 -17 178 -101 327 -186 l272 -155 0 -797 0
-797 -127 -72 c-71 -40 -166 -96 -213 -124 l-85 -50 0 -168 c0 -92 2 -167 4
-167 4 0 137 76 301 170 68 40 273 155 350 198 25 14 51 29 58 35 9 7 12 209
10 970 l-3 961 -274 158 c-151 87 -277 158 -281 158 -3 0 -12 6 -18 12 -7 7
-42 29 -77 48 -35 19 -173 98 -306 175 -133 77 -258 149 -278 160 -49 28 -116
67 -244 142 -59 35 -110 63 -113 63 -3 0 -22 11 -42 25 -20 14 -43 25 -52 25
-8 0 -52 -23 -98 -50z"/>
<path d="M3424 3828 c-49 -28 -105 -60 -124 -71 -83 -46 -316 -179 -330 -188
-8 -5 -121 -69 -250 -142 -129 -74 -311 -178 -405 -232 -93 -54 -190 -109
-215 -123 -25 -14 -78 -45 -118 -69 -41 -24 -76 -43 -78 -43 -2 0 -22 -11 -43
-26 l-39 -25 1 -238 0 -238 149 -86 c115 -67 148 -82 149 -69 1 9 1 116 1 238
0 193 2 222 17 231 9 5 37 22 63 36 367 205 545 306 676 383 79 46 144 84 146
84 2 0 54 29 115 65 62 36 113 65 115 65 2 0 63 34 136 75 l132 75 77 -43 c42
-24 96 -55 121 -69 25 -14 73 -42 108 -61 l62 -36 -2 171 -3 172 -145 83 c-80
46 -163 95 -186 108 l-41 24 -89 -51z"/>
<path d="M1740 3844 c-69 -40 -287 -162 -360 -202 -36 -19 -94 -53 -129 -74
-34 -21 -64 -38 -66 -38 -2 0 -70 -39 -152 -86 -81 -48 -166 -97 -188 -109
-22 -13 -80 -46 -128 -74 -49 -28 -90 -51 -91 -51 -2 0 -70 -39 -152 -86 -141
-82 -173 -100 -322 -184 l-62 -35 0 -966 0 -967 43 -25 c23 -14 58 -34 77 -44
19 -11 148 -84 285 -163 138 -79 266 -152 285 -163 19 -11 123 -70 230 -132
107 -61 215 -123 240 -137 25 -14 106 -60 180 -103 74 -42 153 -87 175 -100
22 -12 68 -39 102 -59 34 -20 66 -36 71 -36 6 0 50 23 99 51 48 29 115 68 148
87 33 19 74 42 90 52 17 9 107 61 200 115 94 54 172 100 175 102 6 6 -24 27
-89 64 -25 15 -81 47 -123 72 l-76 46 -129 -74 c-70 -41 -135 -79 -143 -84 -8
-6 -37 -22 -65 -36 -27 -15 -56 -33 -64 -41 -12 -11 -22 -9 -65 14 -28 15 -52
30 -54 35 -2 4 -7 7 -12 7 -4 0 -97 51 -206 113 -110 63 -219 125 -244 139
-25 14 -136 78 -248 142 -111 64 -204 116 -206 116 -3 0 -104 58 -156 90 -8 5
-61 35 -117 66 l-103 57 0 798 0 798 58 32 c303 170 593 336 830 473 101 58
186 106 189 106 3 0 46 24 96 53 51 30 122 70 159 90 l66 37 181 -104 c99 -57
193 -112 209 -122 29 -17 31 -16 83 13 121 67 239 138 239 143 0 6 -4 8 -285
168 -121 68 -266 151 -323 183 -57 32 -104 59 -105 59 -1 0 -22 -12 -47 -26z"/>
<path d="M4490 3142 l0 -170 201 -116 c110 -64 205 -116 210 -116 5 0 9 -325
9 -802 l-1 -803 -256 -145 c-140 -80 -276 -157 -302 -171 -25 -14 -220 -126
-433 -248 -214 -121 -392 -221 -397 -221 -9 0 -499 275 -831 467 -85 49 -180
102 -210 119 -30 16 -57 31 -60 34 -3 3 -27 17 -55 32 -27 15 -93 51 -145 80
l-95 54 -2 195 c0 106 -2 203 -2 215 -1 14 -23 33 -78 64 -43 25 -87 50 -98
57 -11 7 -27 15 -35 19 -8 4 -27 16 -42 26 -14 10 -31 18 -36 18 -11 0 -14
-742 -3 -757 3 -5 94 -58 201 -117 107 -60 328 -185 490 -279 162 -94 315
-181 340 -195 25 -14 81 -46 125 -72 44 -25 87 -49 95 -53 8 -4 31 -17 50 -28
19 -12 91 -53 160 -92 69 -38 141 -80 160 -92 70 -44 48 -53 492 201 465 267
435 249 583 334 61 34 124 70 140 80 17 9 146 83 288 164 l257 148 0 967 0
967 -32 17 c-18 9 -53 28 -78 43 -34 20 -565 320 -602 341 -5 2 -8 -72 -8
-165z"/>
<path d="M2955 3044 c-71 -42 -136 -81 -143 -88 -11 -11 20 -32 170 -119 l183
-105 2 -794 3 -793 -98 -57 c-248 -144 -276 -162 -262 -166 8 -3 34 -18 57
-33 23 -16 44 -29 47 -29 3 0 42 -22 88 -50 46 -27 89 -50 96 -50 7 0 46 19
85 43 40 24 120 72 180 106 l107 63 0 966 -1 967 -188 108 c-104 59 -191 107
-193 107 -1 0 -61 -35 -133 -76z"/>
<path d="M1125 2981 c-72 -42 -138 -80 -147 -84 -15 -5 -17 -30 -15 -249 l2
-243 250 -142 c137 -79 250 -143 251 -143 1 0 68 -39 150 -86 82 -47 173 -99
203 -116 29 -16 77 -44 105 -60 28 -17 67 -40 86 -51 19 -10 80 -45 135 -77
55 -31 121 -69 148 -84 95 -52 144 -80 254 -143 l112 -63 102 60 c55 33 102
60 104 60 2 0 41 22 87 50 l85 49 0 166 c0 91 -4 165 -9 165 -5 0 -37 -15 -71
-34 -34 -18 -89 -48 -122 -66 -33 -18 -88 -48 -122 -66 l-63 -34 -192 109
c-106 60 -285 162 -398 227 -113 65 -338 193 -500 285 l-295 168 -5 240 -5
240 -130 -78z"/>
</g>
</svg>
