<?xml version="1.0" standalone="no"?>
<!DOCTYPE svg PUBLIC "-//W3C//DTD SVG 20010904//EN"
 "http://www.w3.org/TR/2001/REC-SVG-20010904/DTD/svg10.dtd">
<svg version="1.0" xmlns="http://www.w3.org/2000/svg"
 width="513.000000pt" height="513.000000pt" viewBox="0 0 513.000000 513.000000"
 preserveAspectRatio="xMidYMid meet">
<metadata>
Created by potrace 1.11, written by Peter Selinger 2001-2013
</metadata>
<g transform="translate(0.000000,513.000000) scale(0.100000,-0.100000)"
fill="#000000" stroke="none">
<path d="M2490 5086 c-30 -18 -174 -102 -320 -186 -146 -84 -409 -237 -585
-338 -294 -170 -537 -311 -586 -338 -57 -32 -54 -13 -53 -389 0 -304 2 -348
16 -356 11 -6 50 12 142 67 l126 75 0 204 0 205 53 33 c28 17 54 32 57 32 3 0
48 26 100 57 138 81 160 94 215 123 28 15 57 32 65 39 8 6 29 19 45 28 17 9
181 103 365 208 184 106 357 205 383 219 l48 26 58 -32 c62 -34 1157 -665
1229 -707 l42 -26 0 -764 0 -765 -27 -19 c-31 -21 -316 -189 -350 -206 -29
-14 -29 -17 -28 -175 0 -108 3 -136 15 -143 11 -7 51 11 150 68 74 43 144 82
155 88 143 77 364 212 367 225 3 13 2 1742 -1 1821 -1 26 -21 41 -141 108 -19
11 -356 207 -748 436 -392 229 -718 416 -725 416 -6 0 -37 -16 -67 -34z"/>
<path d="M1700 3720 c-14 -9 -52 -32 -85 -50 -33 -18 -166 -94 -295 -168 -256
-147 -254 -146 -385 -222 -49 -29 -195 -113 -324 -187 -128 -74 -292 -169
-365 -211 l-131 -77 -1 -927 c0 -510 2 -932 5 -937 3 -5 179 -109 391 -232
212 -122 556 -321 765 -442 209 -121 397 -229 417 -240 l37 -20 84 49 c46 27
193 112 325 189 139 80 244 148 248 158 6 19 -8 34 -56 59 -13 7 -60 34 -105
60 -44 27 -86 48 -94 48 -8 0 -98 -50 -201 -110 -104 -61 -195 -110 -203 -110
-8 0 -169 89 -358 198 -189 110 -447 259 -574 332 -126 73 -256 147 -287 164
-32 18 -69 41 -84 51 l-25 20 0 660 c0 363 1 707 1 765 l0 106 63 36 c34 19
85 48 112 63 96 54 519 298 555 320 19 12 105 61 190 110 85 48 205 116 265
150 61 34 119 67 131 73 18 10 48 -4 218 -103 109 -63 201 -115 206 -115 5 0
50 25 101 55 50 30 94 55 98 55 3 1 19 11 34 24 35 28 29 46 -26 75 -85 45
-157 87 -169 99 -7 7 -15 12 -19 12 -4 0 -94 50 -200 111 -106 61 -202 114
-214 119 -14 5 -29 2 -45 -10z"/>
<path d="M3160 3619 c-113 -65 -233 -135 -266 -154 -34 -20 -79 -46 -101 -58
-39 -22 -285 -165 -346 -201 -18 -10 -50 -29 -72 -42 -162 -92 -500 -289 -547
-318 l-58 -35 0 -230 0 -230 122 -72 c68 -39 125 -73 128 -75 3 -1 12 1 20 6
12 7 15 47 16 212 1 112 2 208 3 214 1 10 166 109 311 188 56 30 236 134 355
204 61 36 235 136 388 223 l279 159 46 -26 c26 -15 97 -55 158 -90 62 -35 117
-64 123 -64 21 0 27 38 27 168 -1 146 -1 145 -76 184 -13 7 -80 46 -149 86
-69 39 -132 72 -140 71 -9 0 -108 -54 -221 -120z"/>
<path d="M4324 3169 c-6 -10 -9 -195 -5 -281 1 -15 87 -71 236 -153 28 -15 57
-33 65 -39 8 -7 26 -18 40 -24 66 -34 61 41 60 -802 0 -419 -2 -765 -5 -769
-2 -5 -62 -41 -132 -81 -71 -40 -148 -85 -173 -100 -55 -33 -495 -287 -565
-326 -27 -15 -66 -37 -85 -49 -19 -12 -59 -35 -89 -51 -30 -16 -61 -33 -70
-39 -69 -43 -200 -115 -209 -115 -7 0 -123 64 -259 142 -137 77 -268 152 -293
166 -25 14 -61 35 -80 47 -37 23 -343 200 -420 243 -115 64 -275 155 -280 159
-2 2 -5 96 -5 209 -1 193 -2 207 -20 217 -11 7 -43 26 -72 42 -28 17 -77 45
-108 63 -89 52 -86 67 -83 -342 l3 -350 95 -54 c52 -30 118 -67 145 -82 65
-36 156 -88 175 -100 8 -6 22 -13 30 -17 8 -4 66 -37 129 -75 63 -37 116 -68
118 -68 1 0 31 -17 65 -38 35 -21 83 -50 108 -64 25 -14 90 -51 145 -83 55
-32 121 -70 146 -84 26 -14 140 -80 253 -145 l207 -119 42 23 c23 13 94 53
157 90 63 37 180 104 260 150 80 46 219 127 310 180 91 53 172 99 180 103 8 4
24 13 35 20 20 12 193 112 228 132 9 6 90 52 180 104 89 52 174 101 189 108
15 8 29 22 32 31 9 36 1 1851 -9 1861 -5 5 -42 28 -82 50 -92 52 -99 56 -342
196 -112 65 -212 120 -222 122 -9 3 -20 -1 -25 -8z"/>
<path d="M2910 2975 c-30 -19 -75 -45 -100 -59 -65 -35 -92 -59 -85 -76 3 -8
56 -44 118 -79 61 -36 135 -79 162 -96 l51 -32 -1 -763 c0 -667 -2 -764 -15
-772 -8 -5 -80 -48 -160 -96 -80 -48 -146 -94 -148 -103 -2 -12 32 -38 120
-90 68 -40 130 -72 138 -72 9 1 90 46 180 100 l165 98 3 935 2 936 -166 97
c-92 54 -176 99 -188 102 -13 3 -42 -9 -76 -30z"/>
<path d="M1134 2899 c-38 -21 -76 -43 -84 -49 -8 -5 -32 -19 -53 -30 -21 -12
-41 -29 -45 -40 -4 -10 -7 -116 -6 -235 0 -177 3 -219 15 -226 8 -5 106 -62
219 -127 113 -65 293 -169 400 -231 107 -63 215 -125 240 -139 25 -14 77 -44
115 -67 72 -43 177 -104 255 -147 25 -14 117 -66 205 -117 88 -50 166 -91 173
-91 7 0 92 46 188 101 l174 102 0 149 c0 190 8 185 -145 100 -184 -101 -221
-119 -235 -114 -18 6 -215 119 -505 287 -183 106 -540 313 -630 365 -16 9 -57
32 -90 50 -103 57 -95 34 -95 275 0 173 -3 214 -14 218 -8 3 -45 -12 -82 -34z"/>
</g>
</svg>
